<svg width="30" height="26" viewBox="0 0 30 26" fill="none" xmlns="http://www.w3.org/2000/svg">
<path d="M4.15309 11.9743C3.05239 10.8736 2.46868 9.40603 2.53539 7.83836C2.58542 6.53752 3.10242 5.28672 3.98632 4.31944C5.05367 3.1687 6.5046 2.53496 8.0556 2.53496C9.5232 2.53496 10.9241 3.10199 11.9581 4.15266L12.3083 4.50289C12.4584 4.65298 12.7086 4.65298 12.8587 4.50289L14.1095 3.25208C14.2596 3.10199 14.2596 2.85183 14.1095 2.70173L13.7593 2.35151C12.2416 0.833868 10.207 0 8.0556 0C5.90422 0 3.88626 0.833868 2.36862 2.36818C0.734236 4.00257 -0.116309 6.20398 0.01711 8.53881C0.133852 10.5401 1.03443 12.4246 2.452 13.8589L2.71884 14.1257C2.86894 14.2758 3.1191 14.2758 3.26919 14.1257L4.52 12.8749C4.67009 12.7248 4.67009 12.4747 4.52 12.3246L4.15309 11.9743Z" fill="white"/>
<path d="M29.4689 8.05516C29.4689 5.90378 28.635 3.86915 27.1007 2.35151C25.583 0.833868 23.5651 0 21.4137 0C19.2623 0 17.2277 0.833868 15.7101 2.36818L3.60229 14.4593C3.45219 14.6094 3.45219 14.8595 3.60229 15.0096L4.85309 16.2604C5.00319 16.4105 5.25335 16.4105 5.40344 16.2604L17.5112 4.15266C18.5619 3.10199 19.9461 2.53496 21.4137 2.53496C22.8813 2.53496 24.2822 3.10199 25.3162 4.15266C26.3669 5.20334 26.9339 6.58756 26.9339 8.05516C26.9339 9.53945 26.3502 10.9237 25.3162 11.9577L14.9929 22.281C14.8428 22.431 14.5927 22.431 14.4426 22.281L13.6254 21.4638L7.47144 15.3265C7.32134 15.1764 7.07118 15.1764 6.92108 15.3265L5.67028 16.594C5.52018 16.7441 5.52018 16.9942 5.67028 17.1443C7.82166 19.2957 8.92237 20.3964 10.0397 21.4971C11.1405 22.5978 12.2412 23.6985 14.3925 25.8499L14.4426 25.8999C14.5927 26.05 14.8428 26.05 14.9929 25.8999L27.1007 13.7922C28.635 12.2412 29.4689 10.2065 29.4689 8.05516Z" fill="white"/>
</svg>
