<svg width="115" height="24" viewBox="0 0 115 24" fill="none" xmlns="http://www.w3.org/2000/svg">
<path d="M23.3226 0.833832V23.1815H19.1199L19.1533 10.957L19.2367 11.0404L14.3169 23.1815H9.98074L4.99421 10.957H4.87747L4.91082 23.1815H0.674774V0.833832H4.91082L11.9487 17.5612H12.0654L19.1199 0.833832H23.3226Z" fill="white"/>
<path d="M25.3573 2.65168C25.3573 2.01794 25.5908 1.46759 26.0577 1.0173C26.5247 0.56701 27.075 0.333527 27.7088 0.333527C28.3425 0.333527 28.8929 0.56701 29.3598 1.0173C29.8268 1.46759 30.0603 2.01794 30.0603 2.65168C30.0603 3.3021 29.8268 3.85245 29.3765 4.30274C28.9262 4.75303 28.3592 4.96983 27.7088 4.96983C27.0584 4.96983 26.4913 4.75303 26.041 4.30274C25.5908 3.86913 25.3573 3.31877 25.3573 2.65168ZM25.5908 5.93712H29.8268V23.1815H25.5908V5.93712Z" fill="white"/>
<path d="M46.0038 11.2739H41.9512C41.9512 10.5067 41.6677 9.90633 41.1174 9.47272C40.567 9.03911 39.8165 8.83898 38.8826 8.83898C37.982 8.83898 37.3149 9.00575 36.8646 9.35598C36.4143 9.68952 36.1975 10.1398 36.1975 10.6902C36.1975 11.2572 36.4644 11.6908 36.9814 11.991C37.4984 12.2912 38.1488 12.508 38.8993 12.6247C39.6497 12.7415 40.4836 12.8916 41.3842 13.025C42.2848 13.1751 43.1186 13.3919 43.8858 13.6754C44.653 13.9589 45.2867 14.4926 45.8037 15.2764C46.3207 16.0603 46.5709 17.0776 46.5709 18.295C46.5709 20.0962 45.8537 21.4637 44.4361 22.3643C43.0186 23.2649 41.1674 23.7152 38.8826 23.7152C36.6311 23.7152 34.8467 23.1815 33.4958 22.1142C32.1616 21.0468 31.4778 19.6292 31.4778 17.8614H35.5638C35.5638 18.5786 35.864 19.1623 36.4811 19.6125C37.0981 20.0628 37.8986 20.2796 38.8659 20.2796C39.8832 20.2796 40.6837 20.1129 41.3008 19.7626C41.9012 19.4124 42.2181 18.9288 42.2181 18.295C42.2181 17.678 41.9679 17.211 41.4509 16.8941C40.9506 16.5773 40.3002 16.3771 39.5497 16.3104C38.7825 16.2437 37.9487 16.127 37.0648 15.9435C36.1642 15.7768 35.347 15.5433 34.5798 15.2764C33.8127 15.0096 33.1789 14.4926 32.6786 13.7088C32.1783 12.9416 31.9115 11.9243 31.9115 10.7068C31.9115 9.00575 32.5285 7.68824 33.7626 6.78766C34.9968 5.88709 36.6979 5.4368 38.8826 5.4368C41.1007 5.4368 42.8518 5.9538 44.1193 6.97111C45.3701 7.98843 46.0038 9.42269 46.0038 11.2739Z" fill="white"/>
<path d="M64.1321 4.88643H52.4746V9.95635H62.0975V14.0089H52.4746V23.1815H48.2386V0.833832H64.1154V4.88643H64.1321Z" fill="white"/>
<path d="M79.3919 11.2906V23.1815H75.1558V20.6799L75.0725 20.6466C73.805 22.6812 72.0372 23.6818 69.7691 23.6818C65.2662 23.6818 62.998 21.7806 62.998 17.9949C62.998 16.2437 63.5818 14.9096 64.7325 13.9756C65.8832 13.0417 67.6177 12.5747 69.9525 12.5747H75.1725V11.2906C75.1725 10.3233 74.889 9.67286 74.322 9.33932C73.7549 9.00577 72.871 8.85567 71.6536 8.85567C70.4695 8.85567 69.5689 9.02244 68.9852 9.35599C68.4015 9.68954 68.1013 10.34 68.1013 11.2906H64.0487C64.0487 9.33931 64.7158 7.87171 66.0834 6.88774C67.4342 5.90378 69.2854 5.42014 71.6536 5.42014C74.0385 5.42014 75.923 5.90378 77.3239 6.88774C78.6914 7.88838 79.3919 9.35599 79.3919 11.2906ZM75.1558 17.1443V15.8935H69.9358C68.2347 15.8935 67.3675 16.5606 67.3675 17.8948C67.3675 18.6119 67.601 19.1289 68.0846 19.4291C68.5683 19.7293 69.4355 19.8961 70.703 19.8961C72.0539 19.8961 73.1379 19.6292 73.9384 19.1122C74.7556 18.5619 75.1558 17.9115 75.1558 17.1443Z" fill="white"/>
<path d="M85.8794 23.1815H81.6434V5.93713H85.5459V8.40538H85.6126C86.0962 7.53816 86.78 6.82103 87.6973 6.254C88.6145 5.70365 89.6985 5.42014 90.9493 5.42014C92.9339 5.42014 94.5516 6.10391 95.7858 7.45477C97.0199 8.82232 97.6536 10.5734 97.6536 12.7415V23.1815H93.4176V13.1084C93.4176 12.0577 93.0507 11.1571 92.3169 10.4067C91.5831 9.65619 90.6992 9.28928 89.6652 9.28928C88.6145 9.28928 87.7139 9.65619 86.9801 10.4067C86.2463 11.1571 85.8794 12.0577 85.8794 13.1084V23.1815Z" fill="white"/>
<path d="M113.847 11.2739H109.795C109.795 10.5067 109.511 9.90633 108.961 9.47272C108.41 9.03911 107.66 8.83898 106.726 8.83898C105.826 8.83898 105.158 9.00575 104.708 9.35598C104.258 9.68952 104.041 10.1398 104.041 10.6902C104.041 11.2572 104.308 11.6908 104.825 11.991C105.342 12.2912 105.992 12.508 106.743 12.6247C107.493 12.7415 108.327 12.8916 109.228 13.025C110.128 13.1751 110.962 13.3919 111.729 13.6754C112.496 13.9589 113.13 14.4926 113.647 15.2764C114.164 16.0603 114.414 17.0776 114.414 18.295C114.414 20.0962 113.697 21.4637 112.28 22.3643C110.862 23.2649 109.011 23.7152 106.726 23.7152C104.475 23.7152 102.69 23.1815 101.339 22.1142C100.005 21.0468 99.3214 19.6292 99.3214 17.8614H103.407C103.407 18.5786 103.707 19.1623 104.325 19.6125C104.942 20.0628 105.742 20.2796 106.709 20.2796C107.727 20.2796 108.527 20.1129 109.144 19.7626C109.745 19.4124 110.062 18.9288 110.062 18.295C110.062 17.678 109.811 17.211 109.294 16.8941C108.794 16.5773 108.144 16.3771 107.393 16.3104C106.626 16.2437 105.792 16.127 104.908 15.9435C104.008 15.7768 103.19 15.5433 102.423 15.2764C101.656 15.0096 101.022 14.4926 100.522 13.7088C100.022 12.9249 99.755 11.9243 99.755 10.7068C99.755 9.00575 100.372 7.68824 101.606 6.78766C102.84 5.88709 104.541 5.4368 106.726 5.4368C108.944 5.4368 110.695 5.9538 111.963 6.97111C113.214 7.98843 113.847 9.42269 113.847 11.2739Z" fill="white"/>
</svg>
